<svg id="Layer_1" data-name="Layer 1" xmlns="https://www.w3.org/2000/svg" viewBox="0 0 432.48 243"><defs><style>.cls-1{fill:none;stroke:#7d99ff;stroke-miterlimit:10;stroke-width:2px;}.cls-2{fill:#dce5ff;}.cls-3{fill:#f4b400;}.cls-4{fill:#7d99ff;}.cls-5{fill:#4285f4;}.cls-6{fill:#b9cbf9;}.cls-7{fill:#ffebba;}.cls-8{fill:#bdeed4;}.cls-9{fill:#ffc3c0;}</style></defs><title>coding-illustration</title><path class="cls-1" d="M48,62.55C54.42,56.87,62,55.86,72,55c38.42-3.31,62,0,89,1,32.68,1.26,65.29,5.12,98,5,3.21,0,9-.06,14.09,3.69,12.27,9.08,7.9,31.41,4.27,66.13-6.64,63.61.1,64.73-7.36,74.18-10.43,13.21-51.43,12-133,9-53.49-2-80.45-3.24-91.09-18.12C40.61,188.47,43,185.71,41,135,39.17,89.44,36.45,72.89,48,62.55Z"/><path class="cls-2" d="M57.77,70.13C72,54.17,88.4,69.05,159,64.23c17.95-1.22,43.43.49,94.38,3.93,2.6.18,7.48.56,11.8,3.93,11.33,8.85,6.78,29.05,3.93,61-4.55,50.92,2.22,53.27-4.91,62.91-9,12.21-23.85,13.8-102.25,12.78C79.54,207.67,65.21,205.51,55.8,193c-3.94-5.23-4.92-25.12-6.88-64.89C47.3,95.33,50,78.88,57.77,70.13Z"/><rect class="cls-3" x="70" y="75" width="119" height="8" rx="4"/><rect class="cls-4" x="70" y="93" width="85" height="8" rx="4"/><rect class="cls-5" x="70" y="111" width="99" height="8" rx="4"/><rect class="cls-4" x="70" y="126" width="137" height="8" rx="4"/><rect class="cls-4" x="70" y="171" width="171" height="8" rx="4"/><rect class="cls-4" x="70" y="186" width="47" height="8" rx="4"/><rect class="cls-5" x="70" y="141" width="104" height="8" rx="4"/><rect class="cls-3" x="70" y="156" width="69" height="8" rx="4"/><path class="cls-1" d="M255.62,105.29c4.81-4.28,10.51-5,18.07-5.69,29-2.5,46.74,0,67.13.75,24.65,1,49.25,3.86,73.92,3.77,2.42,0,6.81,0,10.63,2.78,9.25,6.85,5.95,23.7,3.22,49.88-5,48,.07,48.83-5.55,56-7.87,10-38.8,9-100.32,6.79-40.35-1.48-60.69-2.45-68.71-13.67-4-5.59-2.17-7.67-3.7-45.92C248.92,125.57,246.87,113.09,255.62,105.29Z"/><path class="cls-6" d="M264.57,112.48c10.2-11.44,21.95-.77,72.57-4.23,12.86-.88,31.12.36,67.63,2.82a14.76,14.76,0,0,1,8.46,2.82c8.12,6.34,4.86,20.81,2.82,43.68-3.26,36.49,1.59,38.18-3.53,45.09-6.47,8.74-17.08,9.89-73.27,9.16-59.07-.77-69.34-2.32-76.09-11.28-2.82-3.74-3.52-18-4.93-46.49C257.07,130.54,259,118.75,264.57,112.48Z"/><rect class="cls-5" x="274.68" y="118.12" width="82.88" height="5.57" rx="2.79"/><rect class="cls-4" x="274.68" y="130.66" width="59.2" height="5.57" rx="2.79"/><rect class="cls-4" x="274.68" y="143.2" width="48.05" height="5.57" rx="2.79"/><rect class="cls-5" x="274.68" y="153.64" width="114.21" height="5.57" rx="2.79"/><rect class="cls-3" x="274.68" y="184.98" width="74.52" height="5.57" rx="2.79"/><rect class="cls-5" x="274.68" y="195.43" width="57.8" height="5.57" rx="2.79"/><rect class="cls-5" x="274.68" y="164.09" width="89.84" height="5.57" rx="2.79"/><rect class="cls-3" x="274.68" y="174.54" width="48.05" height="5.57" rx="2.79"/><path class="cls-2" d="M298.42,67.26V65.89L305,62.82v1.72l-4.52,2v.1l4.52,2v1.71Z"/><path class="cls-2" d="M311.31,59.32H313L308.19,71h-1.73Z"/><path class="cls-2" d="M314.52,68.62l4.53-2v-.1l-4.53-2V62.82l6.56,3.07v1.37l-6.56,3.07Z"/><path class="cls-7" d="M20,47.64l-.68-1.19,4.15-5.93L24.31,42l-2.93,4,.05.09,4.91-.53L27.2,47Z"/><path class="cls-7" d="M27.19,34.32l1.5-.87L30.32,46l-1.5.86Z"/><path class="cls-7" d="M34.61,40.77l2.93-4,0-.08-4.91.53-.86-1.49,7.22-.61.68,1.19-4.15,5.93Z"/><path class="cls-8" d="M218.42,236.27V234.9l6.56-3.07v1.71l-4.52,2v.1l4.52,2v1.72Z"/><path class="cls-8" d="M231.3,228.31H233L228.2,240h-1.73Z"/><path class="cls-8" d="M234.53,237.61l4.52-2v-.1l-4.53-2v-1.71l6.57,3.06v1.37l-6.56,3.08Z"/><rect class="cls-8" x="197" y="9" width="10" height="10"/><rect class="cls-8" x="384" y="39" width="15" height="15" transform="translate(0.3 95.43) rotate(-13.9)"/><rect class="cls-7" x="266" y="233" width="4" height="4"/><rect class="cls-2" x="264" y="21" width="4" height="4"/><rect class="cls-2" x="15" y="203" width="4" height="4"/><rect class="cls-9" x="67" width="6" height="6"/><rect class="cls-9" x="355" y="237" width="6" height="6"/><rect class="cls-7" x="367" y="81" width="6" height="6"/><rect class="cls-7" x="136" y="30" width="6" height="6"/><rect class="cls-7" x="62" y="225" width="10" height="10" transform="translate(102.65 -6.89) rotate(24.8)"/><rect class="cls-2" x="143" y="230" width="6" height="6"/><rect class="cls-8" x="0.88" y="98.88" width="4.24" height="4.24" transform="translate(72.3 27.46) rotate(45)"/></svg>