<svg id="Layer_1" data-name="Layer 1" xmlns="https://www.w3.org/2000/svg" viewBox="0 0 432.48 243"><defs><style>.cls-1{fill:#ffc3c0;}.cls-11,.cls-2{fill:#bdeed4;}.cls-3,.cls-9{fill:#dce5ff;}.cls-4{fill:#ffebba;}.cls-10,.cls-5,.cls-6,.cls-7,.cls-8{fill:none;}.cls-10,.cls-12,.cls-5,.cls-6,.cls-7,.cls-8{stroke:#7d99ff;stroke-miterlimit:10;stroke-width:2px;}.cls-6{stroke-dasharray:7.9 7.9;}.cls-7{stroke-dasharray:8.04 8.04;}.cls-8{stroke-dasharray:8.11 8.11;}.cls-11,.cls-9{opacity:0.7;}.cls-10{stroke-dasharray:7.92 7.92;}.cls-12{fill:#fff;}</style></defs><title>ui-ux-illustration</title><circle class="cls-1" cx="62" cy="77" r="2"/><circle class="cls-2" cx="48" cy="159" r="3.54"/><circle class="cls-2" cx="342" cy="63" r="2"/><circle class="cls-2" cx="207" cy="31" r="2"/><circle class="cls-3" cx="104" cy="31" r="3.54"/><circle class="cls-1" cx="88" cy="206" r="2.12"/><circle class="cls-3" cx="281" cy="23" r="3.54"/><circle class="cls-3" cx="186" cy="217" r="2"/><circle class="cls-3" cx="365" cy="116" r="2"/><circle class="cls-4" cx="355" cy="206" r="2.12"/><circle class="cls-4" cx="241" cy="20" r="2.12"/><circle class="cls-4" cx="370" cy="28" r="4.95"/><circle class="cls-1" cx="385" cy="164" r="4.95"/><path class="cls-5" d="M89,53c-8.27,9.48-8.85,28.32-10,66s-1.72,56.32,6,66c11.42,14.33,27.58,11,103,13,66.36,1.79,81.67,5.15,94-8,10.74-11.46,11.16-28,12-61,.89-35.32,1.35-53.13-10-67-7.71-9.43-18.51-14.16-91-18C107.6,39.48,96.29,44.65,89,53Z"/><path class="cls-6" d="M101.8,56.12C95,58.82,94.51,64.2,93.56,75c-.7,7.94-1.14,12.94,1.27,16.12a8.94,8.94,0,0,0,3.67,2.71c12.43,5.71,76.64,6.12,84.5,6.21,52.15.62,66,2,66,2,5.37.53,19.52,2,24-5,1.07-1.69,1.18-3.21,1-14-.19-11.78-.3-17.69-1-19-4.16-7.77-17.54-7.6-35-8,0,0-11.22-.26-50.54-2.45C187.46,53.55,117.41,49.92,101.8,56.12Z"/><path class="cls-7" d="M92,110c-4.76,4.41-3.5,9.61-3,39,.41,24.21-.3,28.68,4,33,4,4.06,12.42,4.43,29,5,19.17.66,28.83.89,33-4,1.49-1.75,1.69-3,2-26,0-.82.13-11.15-.37-29.25-.33-12-.54-13.16-1.6-14.71-2.25-3.29-6.68-5.93-35-6C103.54,107,95.24,107,92,110Z"/><path class="cls-8" d="M172.16,114c-7.67,1.48-5.64,3.23-4.83,13.1.66,8.14-.5,9.64,6.45,11.09,6.52,1.37,20,1.49,46.78,1.68,30.91.22,46.5.3,53.23-1.34,2.41-.59,2.72-1,3.18-8.75a55.42,55.42,0,0,0-.61-9.83c-.53-4-.86-4.42-2.57-4.94-3.64-1.11-10.78-2-56.46-2C190.78,113,177.39,113,172.16,114Z"/><path class="cls-9" d="M178.84,116.94c-7.11,1.37-5.23,3-4.48,12.13.61,7.53-.46,8.92,6,10.27,6,1.26,18.55,1.37,43.31,1.55,28.63.21,43.07.28,49.29-1.24,2.23-.55,2.52-.94,2.95-8.1a53.2,53.2,0,0,0-.56-9.1c-.5-3.74-.81-4.1-2.39-4.58-3.37-1-10-1.85-52.27-1.87C196.07,116,183.68,116,178.84,116.94Z"/><path class="cls-9" d="M178.84,155.05c-7.11,1.53-5.23,3.35-4.48,13.59.61,8.43-.46,10,6,11.5,6,1.41,18.55,1.54,43.31,1.74,28.63.23,43.07.31,49.29-1.4,2.23-.61,2.52-1,2.95-9.07a66.66,66.66,0,0,0-.56-10.19c-.5-4.19-.81-4.59-2.39-5.13C269.56,155,263,154,220.66,154,196.07,154,183.68,154,178.84,155.05Z"/><path class="cls-10" d="M173.16,152.23c-7.67,1.82-5.64,4-4.83,16,.66,9.94-.5,11.78,6.45,13.55,6.52,1.67,20,1.82,46.78,2.06,30.91.27,46.5.36,53.23-1.65,2.41-.72,2.72-1.23,3.18-10.69a82.58,82.58,0,0,0-.61-12c-.53-4.93-.86-5.41-2.57-6C271.15,152.11,264,151,218.33,151,191.78,151,178.39,151,173.16,152.23Z"/><path class="cls-9" d="M93.8,112.18c-4.48,4.15-3.3,9-2.83,36.71.39,22.79-.28,27,3.77,31.07,3.81,3.83,11.69,4.17,27.3,4.71,18,.62,27.15.84,31.07-3.77,1.41-1.65,1.59-2.83,1.86-24.51,0-.78.12-10.5-.35-27.54-.32-11.31-.51-12.39-1.51-13.85-2.12-3.1-6.29-5.58-33-5.65C104.66,109.31,96.85,109.35,93.8,112.18Z"/><path class="cls-11" d="M104.57,56.84c-6.59,2.62-7,7.81-8,18.2-.68,7.68-1.1,12.51,1.23,15.58a8.67,8.67,0,0,0,3.54,2.62c12,5.52,74,5.91,81.64,6,50.38.6,63.76,1.93,63.76,1.93,5.19.52,18.86,2,23.19-4.83,1-1.63,1.13-3.1,1-13.53-.18-11.38-.29-17.09-1-18.35-4-7.51-17-7.35-33.82-7.73,0,0-10.83-.25-48.82-2.37C187.33,54.36,119.65,50.86,104.57,56.84Z"/><path class="cls-12" d="M279.48,103.66c-.06,35.74,3.51,40.22,3.51,60.93,0,12.46-1.26,24.19,6,29.26a16,16,0,0,0,4.58,2c8.05,2.7,13.64,1.35,24.74.34,16.59-1.52,21.39-.09,25.7-4.7a14.61,14.61,0,0,0,3.38-6.17c2.46-8.82,1.47-21.14-.5-45.76-2.11-26.34-3.18-39.61-7.52-49.64a15.58,15.58,0,0,0-3.3-5.19C329,77.86,317.82,78.43,310.76,79c-8.87.7-22.46,1.78-28.46,11.35C279.56,94.72,279.49,99.12,279.48,103.66Z"/><path class="cls-12" d="M285.25,104.59a120.9,120.9,0,0,0-.66,20.72c.54,12.85,1.3,10.58,3.07,30.61.82,9.4,1.22,16.26,5.84,19.5a12.73,12.73,0,0,0,3.81,1.51c6.69,2,11.32.9,20.52,0,13.76-1.4,17.74-.33,21.3-4a11.39,11.39,0,0,0,2.78-4.89c2-7,1.13-16.65-.61-36-1.86-20.69-2.8-31.12-6.45-38.95a11.86,11.86,0,0,0-2.75-4c-5.91-5.32-15.15-4.73-21-4.2-7.36.66-18.63,1.68-23.57,9.28C286.18,96.17,285.94,99.07,285.25,104.59Z"/><path class="cls-3" d="M286.43,105.71a114.54,114.54,0,0,0-.63,19.85c.51,12.3,1.24,10.13,2.93,29.32.79,9,1.17,15.57,5.6,18.67A12.13,12.13,0,0,0,298,175c6.4,1.94,10.84.86,19.65,0,13.18-1.34,17-.32,20.41-3.84a10.92,10.92,0,0,0,2.65-4.69c1.92-6.68,1.09-15.94-.58-34.47-1.78-19.81-2.68-29.8-6.17-37.3a11.48,11.48,0,0,0-2.65-3.87c-5.65-5.1-14.5-4.54-20.11-4-7.05.64-17.84,1.61-22.57,8.9C287.32,97.65,287.08,100.42,286.43,105.71Z"/><path class="cls-12" d="M312.07,183.06c-2,1.52-2.77,4.79-1.3,6.88,1.74,2.49,5.88,2.21,8.1.29,1.22-1.06,2.32-3,1.79-4.81C319.79,182.55,314.89,180.89,312.07,183.06Z"/><path class="cls-4" d="M52,105.42l-3.19,1.52,1.51,3.19-1.72.82-1.52-3.2-3.19,1.52-.81-1.71,3.19-1.51-1.51-3.2,1.73-.81L48,105.23l3.19-1.51Z"/><path class="cls-3" d="M383.36,70.78l-3.11-.36-.36,3.1-1.67-.19.36-3.1-3.11-.36.19-1.66,3.11.36.36-3.11,1.67.2-.36,3.1,3.11.36Z"/><path class="cls-4" d="M152.6,25.94H151v1.65h-.89V25.93h-1.64v-.88h1.65V23.41H151v1.64h1.64Z"/><path class="cls-4" d="M138,214.9l-1.78.84.84,1.79-1,.45-.85-1.78-1.78.84-.45-.95,1.78-.84-.84-1.79,1-.46.85,1.79,1.78-.85Z"/></svg>